<?xml version="1.0" encoding="UTF-8" standalone="no"?>
<svg 
  xmlns="http://www.w3.org/2000/svg" 
  viewBox="0 0 1440 320">
  <path 
    fill="#ffffff" 
    fill-opacity="1" 
    d="M0,128L48,154.7C96,181,192,235,288,250.7C384,267,480,245,576,229.3C672,213,768,203,864,202.7C960,203,1056,213,1152,192C1248,171,1344,117,1392,90.7L1440,64L1440,320L1392,320C1344,320,1248,320,1152,320C1056,320,960,320,864,320C768,320,672,320,576,320C480,320,384,320,288,320C192,320,96,320,48,320L0,320Z">
  </path>
</svg>